<?xml version="1.0" encoding="UTF-8" standalone="no"?>
<svg width="145px" height="38px" viewBox="0 0 145 38" version="1.1" xmlns="http://www.w3.org/2000/svg" xmlns:xlink="http://www.w3.org/1999/xlink">
    <!-- Generator: Sketch 3.6.1 (26313) - http://www.bohemiancoding.com/sketch -->
    <title>logo</title>
    <desc>Created with Sketch.</desc>
    <defs></defs>
    <g id="website" stroke="none" stroke-width="1" fill="none" fill-rule="evenodd">
        <g id="Artboard-8-Copy" transform="translate(-600.000000, -391.000000)">
            <g id="logo" transform="translate(600.000000, 391.000000)">
                <path d="M137.266667,29.2333333 L137.266667,24.3333333 L139.7,24.3333333 L139.7,6.73333333 L144.533333,6.73333333 L144.533333,29.2333333 L137.266667,29.2333333 Z M138.6,29.2333333 L116.4,29.2333333 L116.4,24.3333333 L130.966667,24.3333333 C131.011111,23.977776 131.033333,23.733334 131.033333,23.6 C131.033333,20.9555423 129.722235,19.6333333 127.1,19.6333333 L118.8,19.6 L118.8,14.4333333 L118.9,14.4333333 L133.4,6 L136.033333,11.1666667 L129.133333,14.7333333 C133.844468,15.8000053 136.2,18.7555313 136.2,23.6 L136.2,24.3333333 L138.6,24.3333333 L138.6,29.2333333 Z M117.733333,29.2333333 L114.666667,29.2333333 C114.533333,31.5222337 113.666675,33.3166602 112.066667,34.6166667 C110.466659,35.9166732 108.311125,36.5000007 105.6,36.3666667 L104.9,36.3333333 L102.933333,31.4666667 C104.133339,31.488889 105.294439,31.288891 106.416667,30.8666667 C107.538895,30.4444423 108.333331,29.9000033 108.8,29.2333333 L105.6,29.2333333 C104.577773,29.2333333 103.677782,28.8277818 102.9,28.0166667 C102.122218,27.2055515 101.566668,26.277783 101.233333,25.2333333 C100.899998,24.1888837 100.733333,23.1555607 100.733333,22.1333333 C100.733333,19.577765 101.316661,17.6611175 102.483333,16.3833333 C103.650006,15.1055492 105.255545,14.4666667 107.3,14.4666667 L109.166667,14.4666667 L109.166667,14.4333333 L114.7,14.4333333 L114.7,24.3333333 L117.733333,24.3333333 L117.733333,29.2333333 Z M105.233333,21.9 C105.233333,22.7222263 105.488886,23.3333313 106,23.7333333 C106.511114,24.1333353 107.566659,24.3333333 109.166667,24.3333333 L109.166667,19.5333333 C107.588881,19.5333333 106.538892,19.7277758 106.016667,20.1166667 C105.494442,20.5055575 105.233333,21.099996 105.233333,21.9 L105.233333,21.9 Z M84.3333333,24.3333333 L93.1333333,24.3333333 C93.177778,23.977776 93.2,23.722223 93.2,23.5666667 C93.2,20.7444303 91.788903,19.3333333 88.9666667,19.3333333 C88.655554,19.3333333 88.422223,19.3444443 88.2666667,19.3666667 L88.2666667,14.4666667 L88.9666667,14.4666667 C91.4777903,14.4666667 93.6222133,15.3555467 95.4,17.1333333 C97.1777867,18.91112 98.0666667,21.055543 98.0666667,23.5666667 C98.0666667,25.655566 97.4111177,27.544436 96.1,29.2333333 L84.3333333,29.2333333 L84.3333333,24.3333333 Z" id="logo-copy" fill="#FFFFFF"></path>
                <path d="M74.1666667,15.0666667 L74.1666667,29.2333333 C74.1666667,31.7000123 73.3611192,33.6444373 71.75,35.0666667 C70.1388808,36.488896 67.9111253,37.133334 65.0666667,37 L64.3666667,36.9666667 L62.4,32.1 C63.600006,32.1222223 64.7611055,31.9222243 65.8833333,31.5 C67.0055612,31.0777757 67.7999977,30.5333367 68.2666667,29.8666667 L65.0666667,29.8666667 C64.0444393,29.8666667 63.1444483,29.4611152 62.3666667,28.65 C61.588885,27.8388848 61.033335,26.9111163 60.7,25.8666667 C60.366665,24.822217 60.2,23.788894 60.2,22.7666667 C60.2,20.2110983 60.7833275,18.2944508 61.95,17.0166667 C63.1166725,15.7388825 64.722212,15.1 66.7666667,15.1 L68.6333333,15.1 L68.6333333,15.0666667 L74.1666667,15.0666667 Z M64.7,22.5333333 C64.7,23.3555597 64.955553,23.9666647 65.4666667,24.3666667 C65.9777803,24.7666687 67.0333253,24.9666667 68.6333333,24.9666667 L68.6333333,20.1666667 C67.0555477,20.1666667 66.0055582,20.3611092 65.4833333,20.75 C64.9611085,21.1388908 64.7,21.7333293 64.7,22.5333333 L64.7,22.5333333 Z M54.0333333,4.1 L57.8,4.1 L57.8,5.56666667 L52.4333333,5.56666667 C52.344444,5.322221 52.3,5.044446 52.3,4.73333333 C52.3,3.444438 52.711107,2.333338 53.5333333,1.4 C54.3555597,0.466662 55.7333237,0 57.6666667,0 L57.6666667,1.53333333 C56.7777733,1.53333333 55.9500038,1.73888683 55.1833333,2.15 C54.4166628,2.56111317 54.0333333,3.21110667 54.0333333,4.1 L54.0333333,4.1 Z M57.5333333,29.8666667 L52.7,29.8666667 L52.7,7.43333333 L57.5333333,7.43333333 L57.5333333,29.8666667 Z M42.6666667,12.3 L37.2666667,12.3 L37.2666667,7.36666667 L42.6666667,7.36666667 L42.6666667,12.3 Z M49.9,12.3 L44.5,12.3 L44.5,7.36666667 L49.9,7.36666667 L49.9,12.3 Z M33.2,29.8666667 L33.2,24.9666667 L44.6333333,24.9666667 L44.6333333,15.0666667 L50.0333333,15.0666667 L50.0333333,29.8666667 L33.2,29.8666667 Z M32.1,7.36666667 L32.1,24.9666667 L34.5333333,24.9666667 L34.5333333,29.8666667 L27.2666667,29.8666667 L27.2666667,7.36666667 L32.1,7.36666667 Z M16.2666667,18 L16.9,18.0333333 C19.366679,18.5000023 21.26666,19.4444373 22.6,20.8666667 C23.93334,22.288896 24.6,24.155544 24.6,26.4666667 L24.6,29.8333333 L1.96666667,29.8333333 C0.655549,28.144436 0,26.255566 0,24.1666667 C0,21.6333207 0.88888,19.4777867 2.66666667,17.7 C4.57778733,15.7888793 6.72221033,14.8999993 9.1,15.0333333 L9.8,15.0666667 L9.8,19.9666667 C9.64444367,19.9444443 9.41111267,19.9333333 9.1,19.9333333 C6.27776367,19.9333333 4.86666667,21.3444303 4.86666667,24.1666667 C4.86666667,24.322223 4.88888867,24.577776 4.93333333,24.9333333 L18.8666667,24.9333333 C18.1111073,23.7333273 16.9888963,23.1111113 15.5,23.0666667 L11.2333333,23 L11.2333333,18 C11.9222257,12.7777517 14.9555287,10.1666667 20.3333333,10.1666667 L21,10.1666667 L21,15.0666667 C20.8444437,15.0444443 20.6222237,15.0333333 20.3333333,15.0333333 C18.2666563,15.0333333 16.9111143,16.0222123 16.2666667,18 L16.2666667,18 Z M11.9,37.4 L6.5,37.4 L6.5,32.4666667 L11.9,32.4666667 L11.9,37.4 Z M19.1333333,37.4 L13.7333333,37.4 L13.7333333,32.4666667 L19.1333333,32.4666667 L19.1333333,37.4 Z" id="logo-copy-2" fill="#D87800"></path>
                <rect id="Rectangle-872" fill="#FFFFFF" x="137" y="24.3" width="2" height="4.92000008"></rect>
                <rect id="Rectangle-872-Copy" fill="#FFFFFF" x="116" y="24.3" width="2" height="4.92000008"></rect>
                <rect id="Rectangle-872-Copy-2" fill="#D87800" x="33" y="24.9" width="2" height="4.92000008"></rect>
            </g>
        </g>
    </g>
</svg>